<svg xmlns="http://www.w3.org/2000/svg" width="180" height="180" viewBox="0 0 180 180">
  <g fill="none" fill-rule="evenodd">
    <path fill="#000" d="M75.2761149,-2.80617679e-15 L104.723885,2.80617679e-15 C129.500918,-1.74529032e-15 139.527593,2.78476833 149.305371,8.01398111 C159.083149,13.2431939 166.756806,20.9168511 171.986019,30.6946289 C177.215232,40.4724067 180,50.499082 180,75.2761149 L180,104.723885 C180,129.500918 177.215232,139.527593 171.986019,149.305371 C166.756806,159.083149 159.083149,166.756806 149.305371,171.986019 C139.527593,177.215232 129.500918,180 104.723885,180 L75.2761149,180 C50.499082,180 40.4724067,177.215232 30.6946289,171.986019 C20.9168511,166.756806 13.2431939,159.083149 8.01398111,149.305371 C2.78476833,139.527593 1.16352688e-15,129.500918 -1.87078452e-15,104.723885 L1.87078452e-15,75.2761149 C-1.16352688e-15,50.499082 2.78476833,40.4724067 8.01398111,30.6946289 C13.2431939,20.9168511 20.9168511,13.2431939 30.6946289,8.01398111 C40.4724067,2.78476833 50.499082,1.74529032e-15 75.2761149,-2.80617679e-15 Z"/>
    <polygon fill="#FFF" points="45 45 135 45 135 63 117 63 117 81 126 81 126 99 117 99 117 117 135 117 135 135 45 135"/>
  </g>
</svg>
