<?xml version="1.0" encoding="UTF-8"?>
<svg width="422px" height="140px" viewBox="0 0 422 140" version="1.1" xmlns="http://www.w3.org/2000/svg" xmlns:xlink="http://www.w3.org/1999/xlink">
    <!-- Generator: Sketch 49.3 (51167) - http://www.bohemiancoding.com/sketch -->
    <title>Evericons_logo</title>
    <desc>Created with Sketch.</desc>
    <defs></defs>
    <g id="Evericons_logo" stroke="none" stroke-width="1" fill="none" fill-rule="evenodd">
        <g id="Evericons" transform="translate(40.000000, 40.000000)">
            <g id="Group" transform="translate(80.500000, 4.500000)" fill="#000000">
                <path d="M247.2905,17.1525 C245.7245,17.1525 244.9145,17.7525 244.9145,18.6645 C244.9145,19.7985 246.5885,20.34 249.668,21.258 C255.4475,22.932 260.039,24.876 260.039,30.657 C260.039,37.0845 255.2315,40.434 248.102,40.434 C243.153199,40.4804672 238.315238,38.9685716 234.2735,36.1125 L238.109,29.8995 C241.073197,31.9472263 244.558994,33.1089853 248.159,33.249 C249.941,33.249 250.751,32.709 250.751,31.575 C250.751,30.441 249.131,29.8995 246.0515,29.0895 C240.272,27.5235 235.6805,25.6395 235.6805,19.6395 C235.6805,13.428 240.65,9.972 247.4015,9.972 C251.655292,9.96325635 255.827171,11.1414188 259.448,13.374 L255.9365,19.8555 C253.302636,18.297273 250.3429,17.3719706 247.2905,17.1525 Z" id="evericons-path"></path>
                <path d="M220.9415,23.958 C220.9415,20.772 219.2675,19.0425 216.8375,19.0425 C214.352,19.0425 212.516,20.772 212.516,23.958 L212.516,39.7845 L202.25,39.7845 L202.25,10.563 L212.513,10.563 L212.513,14.667 C214.485869,11.7571575 217.747635,9.98507862 221.2625,9.9135 C227.4755,9.9135 231.2015,14.019 231.2015,20.664 L231.2015,39.7845 L220.9385,39.7845 L220.9385,23.958 L220.9415,23.958 Z" id="evericons-path"></path>
                <path d="M181.7375,40.488 C172.3925,40.488 165.641,33.627 165.641,25.2015 C165.641,16.8825 172.4465,9.9135 181.841,9.9135 C191.186,9.9135 197.9375,16.7745 197.9375,25.2015 C197.942,33.519 191.1365,40.488 181.7375,40.488 Z M181.7375,18.6105 C180.035145,18.6189877 178.412463,19.3327298 177.255781,20.581798 C176.0991,21.8308662 175.511906,23.5035081 175.634,25.2015 C175.56511,26.9041023 176.18508,28.5626588 177.353897,29.8026047 C178.522715,31.0425506 180.141799,31.7593059 181.8455,31.791 C183.547574,31.7824839 185.170004,31.0689461 186.326637,29.8202146 C187.48327,28.5714831 188.070659,26.8992424 187.949,25.2015 C188.018305,23.4986435 187.39852,21.8396958 186.229657,20.5994201 C185.060795,19.3591444 183.441472,18.6421828 181.7375,18.6105 Z" id="Combined-Shape"></path>
                <path d="M151.55,31.845 C153.9815,31.845 155.4395,30.657 157.061,28.7655 L164.0285,33.789 C161.217445,38.2094257 156.240922,40.7702221 151.01,40.488 C145.500934,40.5050723 140.410219,37.5519309 137.690209,32.7611435 C134.970199,27.9703561 135.043087,22.0855357 137.880919,17.3635862 C140.718751,12.6416367 145.881047,9.81548633 151.388,9.969 C156.428474,9.70382281 161.212654,12.2074672 163.868,16.5 L157.0085,21.4695 C155.863191,19.6573978 153.856937,18.5724292 151.7135,18.606 C147.9875,18.606 145.7135,21.5235 145.7135,25.197 C145.718,28.9815 148.1,31.845 151.55,31.845 Z" id="evericons-path"></path>
                <polygon id="evericons-path" points="131.1935 39.7845 120.9305 39.7845 120.9305 10.563 131.1935 10.563"></polygon>
                <polygon id="evericons-path" points="120.713 0.354 131.408 0.354 131.408 7.9155 120.713 7.9155"></polygon>
                <path d="M107.864,30.711 L107.864,39.7845 L97.601,39.7845 L97.601,10.563 L107.864,10.563 L107.864,16.4505 C109.5395,12.453 112.2395,9.8595 117.101,10.077 L117.101,20.877 L116.237,20.877 C110.891,20.88 107.8655,23.958 107.8655,30.711 L107.864,30.711 Z" id="evericons-path"></path>
                <path d="M73.628,28.011 C74.2370998,30.9666146 76.9368289,33.017204 79.9475,32.811 C82.43053,32.7776441 84.7843748,31.6987532 86.4305,29.8395 L92.102,34.539 C89.0801274,38.455787 84.3509475,40.6697785 79.4075,40.482 C70.2245,40.482 63.743,34.377 63.743,25.1955 C63.743,16.6605 69.8465,9.9075 78.4895,9.9075 C88.5905,9.9075 93.236,17.3085 93.236,25.8975 C93.236,26.5455 93.236,27.3015 93.182,27.9975 L73.6295,27.9975 L73.628,28.011 Z M78.5435,17.478 C75.8435,17.478 74.006,19.578 73.466,22.7715 L83.621,22.7715 C83.2445,19.5285 81.35,17.4765 78.545,17.4765 L78.5435,17.478 Z" id="Combined-Shape"></path>
                <polygon id="evericons-path" points="42.362 40.002 30.695 10.5645 41.495 10.5645 47.1125 27.633 52.73 10.5645 63.371 10.5645 51.704 40.002 42.359 40.002"></polygon>
                <path d="M10.286,28.011 C10.8950998,30.9666146 13.5948289,33.017204 16.6055,32.811 C19.0880471,32.7774098 21.4413384,31.6985229 23.087,29.8395 L28.76,34.539 C25.7381274,38.455787 21.0089475,40.6697785 16.0655,40.482 C6.8825,40.482 0.401,34.377 0.401,25.1955 C0.401,16.6605 6.5045,9.9075 15.1475,9.9075 C25.2485,9.9075 29.894,17.3085 29.894,25.8975 C29.894,26.5455 29.894,27.3015 29.84,27.9975 L10.2875,27.9975 L10.286,28.011 Z M15.2015,17.478 C12.5015,17.478 10.664,19.578 10.124,22.7715 L20.279,22.7715 C19.9025,19.5285 18.011,17.4765 15.2,17.4765 L15.2015,17.478 Z" id="Combined-Shape"></path>
            </g>
            <polygon id="evericons-path" fill="#9158FF" points="0 0 60 0 60 12 48 12 48 24 54 24 54 36 48 36 48 48 60 48 60 60 0 60"></polygon>
        </g>
    </g>
</svg>